<?xml version="1.0" encoding="utf-8"?>
<!-- Generator: Adobe Illustrator 22.0.1, SVG Export Plug-In . SVG Version: 6.00 Build 0)  -->
<svg version="1.1" id="Lager_1" xmlns="http://www.w3.org/2000/svg" xmlns:xlink="http://www.w3.org/1999/xlink" x="0px" y="0px"
	 viewBox="0 0 162 187" style="enable-background:new 0 0 162 187;" xml:space="preserve">
<style type="text/css">
	.st0{fill:#616161;stroke:#616161;stroke-width:15;stroke-miterlimit:10;}
	.st1{fill:none;stroke:#757575;stroke-width:15;stroke-miterlimit:10;}
	.st2{fill:#757575;}
	.st3{fill:#616161;}
</style>
<title>bin</title>
<path class="st0" d="M36.3,45h89.5c5.7,0,10.3,4.6,10.3,10.3v116c0,4.3-3.5,7.8-7.8,7.8h-92c-5.7,0-10.3-4.6-10.3-10.3V55.3
	C26,49.6,30.6,45,36.3,45z"/>
<line class="st1" x1="0" y1="44" x2="0" y2="44"/>
<line class="st1" x1="162" y1="44" x2="162" y2="44"/>
<path class="st2" d="M52,147.5L52,147.5c-3.3,0-6-2.7-6-6v-65c0-3.3,2.7-6,6-6h0c3.3,0,6,2.7,6,6v65C58,144.8,55.3,147.5,52,147.5z"
	/>
<path class="st2" d="M81,147.5L81,147.5c-3.3,0-6-2.7-6-6v-65c0-3.3,2.7-6,6-6h0c3.3,0,6,2.7,6,6v65C87,144.8,84.3,147.5,81,147.5z"
	/>
<path class="st2" d="M109.5,147.5L109.5,147.5c-3.3,0-6-2.7-6-6v-65c0-3.3,2.7-6,6-6h0c3.3,0,6,2.7,6,6v65
	C115.5,144.8,112.8,147.5,109.5,147.5z"/>
<path class="st3" d="M50.8,25.1v12c0,2.2,1.8,4,4,4h4.1c2.2,0,4-1.8,4-4v0c0-2.2,1.8-4,4-4h28.6c2.2,0,4,1.8,4,4v0c0,2.2,1.8,4,4,4
	h4.1c2.2,0,4-1.8,4-4v-12c0-2.2-1.8-4-4-4H54.7C52.5,21.2,50.8,22.9,50.8,25.1z"/>
<path class="st3" d="M162,44v0.9c0,3.9-3.2,7.1-7.1,7.1H7.1c-3.9,0-7.1-3.2-7.1-7.1V44c0-3.9,3.2-7.1,7.1-7.1h147.9
	C158.8,36.9,162,40.1,162,44z"/>
</svg>
