<svg id="Lager_1" data-name="Lager 1" xmlns="http://www.w3.org/2000/svg" viewBox="0 0 161 224"><defs><style>.cls-1,.cls-2{fill:#fff;}.cls-1{stroke:#fff;stroke-miterlimit:10;stroke-width:12px;}</style></defs><title>copy</title><path class="cls-1" d="M52.54,11C45.1,11,39,18,39,26.47V176h4.51V26.47c0-5.69,4.06-10.31,9-10.31H153V11Z" transform="translate(-33 -5)"/><path class="cls-2" d="M178,51V213H78V51H178m4-16H74A12,12,0,0,0,62,47V217a12,12,0,0,0,12,12H182a12,12,0,0,0,12-12V47a12,12,0,0,0-12-12Z" transform="translate(-33 -5)"/></svg>