<svg id="Lager_1" data-name="Lager 1" xmlns="http://www.w3.org/2000/svg" viewBox="0 0 708.86 108.35"><defs><style>.cls-1,.cls-2{fill:#fff;}.cls-2{font-size:72px;font-family:Lato-Regular, Lato;}.cls-3{letter-spacing:-0.01em;}.cls-4{letter-spacing:-0.01em;}.cls-5{letter-spacing:-0.02em;}.cls-6{letter-spacing:-0.01em;}.cls-7{letter-spacing:-0.01em;}.cls-8{letter-spacing:-0.01em;}.cls-9{letter-spacing:-0.02em;}</style></defs><title>infoquizbuilder-logo</title><path class="cls-1" d="M171.54,122.42a43.74,43.74,0,0,0-11-24.11,44.78,44.78,0,0,0-8.32-7.15A43.76,43.76,0,0,0,128,83.91a45.45,45.45,0,0,0-5.52.34,43.91,43.91,0,0,0-16.32,5.47,44.65,44.65,0,0,0-9.83,7.71A43.86,43.86,0,0,0,87.11,112a43.27,43.27,0,0,0-2.78,12.11c-.1,1.21-.15,2.44-.15,3.68a43.5,43.5,0,0,0,8.39,25.78h0A43.72,43.72,0,0,0,122,171.17a43.23,43.23,0,0,0,6.06.42,43.81,43.81,0,0,0,43.84-43.84A46.8,46.8,0,0,0,171.54,122.42ZM128,151.53a23.78,23.78,0,1,1,23.77-23.78A23.78,23.78,0,0,1,128,151.53Z" transform="translate(-72.14 -72.85)"/><path class="cls-1" d="M87.18,119l-14.73-.27-.31,17.09,14.45.39S86.27,121.18,87.18,119Z" transform="translate(-72.14 -72.85)"/><path class="cls-1" d="M86.25,114.4" transform="translate(-72.14 -72.85)"/><path class="cls-1" d="M82.32,148.93" transform="translate(-72.14 -72.85)"/><path class="cls-1" d="M103.87,92.71,92.74,83.05,81.54,96l10.84,9.58S101.75,93.82,103.87,92.71Z" transform="translate(-72.14 -72.85)"/><path class="cls-1" d="M137,87.59l-.07-14.74-17.09.08-.06,14.46S134.73,86.73,137,87.59Z" transform="translate(-72.14 -72.85)"/><path class="cls-1" d="M163.88,105.74l11.17-10.62L163.27,82.74,152.22,93.07S163,103.5,163.88,105.74Z" transform="translate(-72.14 -72.85)"/><path class="cls-1" d="M169.27,136.43l14.73,0,0-17.09-14.46-.11S170.13,134.2,169.27,136.43Z" transform="translate(-72.14 -72.85)"/><path class="cls-1" d="M152.83,162.46l11.37,9.37,10.87-13.18L164,149.35S154.92,161.3,152.83,162.46Z" transform="translate(-72.14 -72.85)"/><path class="cls-1" d="M139.35,181,139,166.29l-17.08.45.26,14.46S137.1,180.21,139.35,181Z" transform="translate(-72.14 -72.85)"/><path class="cls-1" d="M94.59,151.45,84.32,162l12.26,11.91,10.17-10.29S95.58,153.63,94.59,151.45Z" transform="translate(-72.14 -72.85)"/><text class="cls-2" transform="translate(148.86 74.25)"><tspan class="cls-3">I</tspan><tspan class="cls-4" x="19.62" y="0">n</tspan><tspan class="cls-5" x="59.22" y="0">f</tspan><tspan class="cls-6" x="83.27" y="0">o</tspan><tspan class="cls-7" x="123.59" y="0">Q</tspan><tspan x="180.68" y="0">uiz </tspan><tspan class="cls-8" x="289.08" y="0">B</tspan><tspan x="334.87" y="0">uilde</tspan><tspan class="cls-9" x="487.62" y="0">r</tspan></text></svg>