<svg id="Lager_1" data-name="Lager 1" xmlns="http://www.w3.org/2000/svg" viewBox="0 0 662.15 108.35"><defs><style>.cls-1{fill:#fff;}</style></defs><title>infoquizbuilder-logo</title><path class="cls-1" d="M171.54,122.42a43.74,43.74,0,0,0-11-24.11,44.78,44.78,0,0,0-8.32-7.15A43.76,43.76,0,0,0,128,83.91a45.45,45.45,0,0,0-5.52.34,43.91,43.91,0,0,0-16.32,5.47,44.65,44.65,0,0,0-9.83,7.71A43.86,43.86,0,0,0,87.11,112a43.27,43.27,0,0,0-2.78,12.11c-.1,1.21-.15,2.44-.15,3.68a43.5,43.5,0,0,0,8.39,25.78h0A43.72,43.72,0,0,0,122,171.17a43.23,43.23,0,0,0,6.06.42,43.81,43.81,0,0,0,43.84-43.84A46.8,46.8,0,0,0,171.54,122.42ZM128,151.53a23.78,23.78,0,1,1,23.77-23.78A23.78,23.78,0,0,1,128,151.53Z" transform="translate(-72.14 -72.85)"/><path class="cls-1" d="M87.18,119l-14.73-.27-.31,17.09,14.45.39S86.27,121.18,87.18,119Z" transform="translate(-72.14 -72.85)"/><path class="cls-1" d="M86.25,114.4" transform="translate(-72.14 -72.85)"/><path class="cls-1" d="M82.32,148.93" transform="translate(-72.14 -72.85)"/><path class="cls-1" d="M103.87,92.71,92.74,83.05,81.54,96l10.84,9.58S101.75,93.82,103.87,92.71Z" transform="translate(-72.14 -72.85)"/><path class="cls-1" d="M137,87.59l-.07-14.74-17.09.08-.06,14.46S134.73,86.73,137,87.59Z" transform="translate(-72.14 -72.85)"/><path class="cls-1" d="M163.88,105.74l11.17-10.62L163.27,82.74,152.22,93.07S163,103.5,163.88,105.74Z" transform="translate(-72.14 -72.85)"/><path class="cls-1" d="M169.27,136.43l14.73,0,0-17.09-14.46-.11S170.13,134.2,169.27,136.43Z" transform="translate(-72.14 -72.85)"/><path class="cls-1" d="M152.83,162.46l11.37,9.37,10.87-13.18L164,149.35S154.92,161.3,152.83,162.46Z" transform="translate(-72.14 -72.85)"/><path class="cls-1" d="M139.35,181,139,166.29l-17.08.45.26,14.46S137.1,180.21,139.35,181Z" transform="translate(-72.14 -72.85)"/><path class="cls-1" d="M94.59,151.45,84.32,162l12.26,11.91,10.17-10.29S95.58,153.63,94.59,151.45Z" transform="translate(-72.14 -72.85)"/><path class="cls-1" d="M234.57,147.1h-7V95.51h7Z" transform="translate(-72.14 -72.85)"/><path class="cls-1" d="M251.75,115.92a22.74,22.74,0,0,1,2.51-2.41,16.19,16.19,0,0,1,2.83-1.85,14.37,14.37,0,0,1,3.17-1.19,14.86,14.86,0,0,1,3.62-.41,13.32,13.32,0,0,1,5.27,1,10.39,10.39,0,0,1,3.82,2.81,12.48,12.48,0,0,1,2.32,4.38,19,19,0,0,1,.79,5.65V147.1h-6.44V123.88a9.84,9.84,0,0,0-1.89-6.43q-1.89-2.28-5.75-2.28a10.66,10.66,0,0,0-5.3,1.37,17.31,17.31,0,0,0-4.56,3.7V147.1H245.7V110.63h3.85a1.58,1.58,0,0,1,1.69,1.33Z" transform="translate(-72.14 -72.85)"/><path class="cls-1" d="M287.67,147.1v-31l-4-.46a3.23,3.23,0,0,1-1.24-.56,1.3,1.3,0,0,1-.49-1.1v-2.63h5.76v-3.53a16.46,16.46,0,0,1,.88-5.56,11.26,11.26,0,0,1,2.52-4.1A10.75,10.75,0,0,1,295,95.62a14.54,14.54,0,0,1,5.18-.87,13.53,13.53,0,0,1,4.5.73l-.14,3.2a.94.94,0,0,1-1,.94c-.59,0-1.37.07-2.35.07a9.77,9.77,0,0,0-3,.43,5.72,5.72,0,0,0-2.32,1.4,6.37,6.37,0,0,0-1.5,2.56,12.62,12.62,0,0,0-.52,3.92v3.35h10.51V116H294.12v31.1Z" transform="translate(-72.14 -72.85)"/><path class="cls-1" d="M324.72,110.06a18.59,18.59,0,0,1,7.2,1.33,15.51,15.51,0,0,1,5.47,3.78,16.49,16.49,0,0,1,3.47,5.92,25.52,25.52,0,0,1,0,15.53,16.54,16.54,0,0,1-3.47,5.91,15.33,15.33,0,0,1-5.47,3.76,18.77,18.77,0,0,1-7.2,1.31,19,19,0,0,1-7.26-1.31,15.24,15.24,0,0,1-5.49-3.76,16.54,16.54,0,0,1-3.47-5.91,25.52,25.52,0,0,1,0-15.53,16.49,16.49,0,0,1,3.47-5.92,15.41,15.41,0,0,1,5.49-3.78A18.82,18.82,0,0,1,324.72,110.06Zm0,32.54c3.6,0,6.28-1.21,8.06-3.62s2.66-5.78,2.66-10.1-.88-7.72-2.66-10.15-4.46-3.63-8.06-3.63A11.34,11.34,0,0,0,320,116a9,9,0,0,0-3.39,2.7,11.93,11.93,0,0,0-2,4.34,23,23,0,0,0-.67,5.81q0,6.48,2.68,10.1T324.72,142.6Z" transform="translate(-72.14 -72.85)"/><path class="cls-1" d="M401.25,157.75h-5.76a6.81,6.81,0,0,1-2.3-.36,4.61,4.61,0,0,1-1.84-1.26l-9-9.86a28,28,0,0,1-8.9,1.37,26.85,26.85,0,0,1-10.36-1.93,23.12,23.12,0,0,1-8-5.42,24.38,24.38,0,0,1-5.19-8.33,31.82,31.82,0,0,1,0-21.27,24.71,24.71,0,0,1,5.19-8.36,23.33,23.33,0,0,1,8-5.45,28.71,28.71,0,0,1,20.75,0,23.32,23.32,0,0,1,8.05,5.45,24.53,24.53,0,0,1,5.18,8.36,29.81,29.81,0,0,1,1.84,10.63,31.57,31.57,0,0,1-.74,6.92,27.34,27.34,0,0,1-2.14,6.1,24.4,24.4,0,0,1-3.42,5.13,23.26,23.26,0,0,1-4.54,4Zm-46.11-36.43a26.2,26.2,0,0,0,1.29,8.52,18.08,18.08,0,0,0,3.69,6.37,16,16,0,0,0,5.78,4,21.32,21.32,0,0,0,15.09,0,15.93,15.93,0,0,0,5.76-4,18.19,18.19,0,0,0,3.67-6.37,28.81,28.81,0,0,0,0-17,18.19,18.19,0,0,0-3.67-6.39,16,16,0,0,0-5.76-4,20.89,20.89,0,0,0-15.09,0,16,16,0,0,0-5.78,4,18.08,18.08,0,0,0-3.69,6.39A26.35,26.35,0,0,0,355.14,121.32Z" transform="translate(-72.14 -72.85)"/><path class="cls-1" d="M436.75,110.63V147.1h-3.82a1.63,1.63,0,0,1-1.73-1.33l-.5-3.93a19.66,19.66,0,0,1-5.33,4.23,13.94,13.94,0,0,1-6.77,1.61,13.32,13.32,0,0,1-5.27-1,10.37,10.37,0,0,1-3.83-2.8,11.73,11.73,0,0,1-2.33-4.35,19.64,19.64,0,0,1-.77-5.65V110.63h6.41v23.26a9.71,9.71,0,0,0,1.89,6.4c1.26,1.52,3.18,2.27,5.78,2.27a10.92,10.92,0,0,0,5.31-1.35,16.93,16.93,0,0,0,4.55-3.72V110.63Z" transform="translate(-72.14 -72.85)"/><path class="cls-1" d="M455,99.18a4.11,4.11,0,0,1-.38,1.75,5,5,0,0,1-1,1.44,4.58,4.58,0,0,1-1.48,1,4.46,4.46,0,0,1-1.78.36,4.24,4.24,0,0,1-1.74-.36,4.58,4.58,0,0,1-1.43-1,5.07,5.07,0,0,1-1-1.44,4.25,4.25,0,0,1-.36-1.75,4.53,4.53,0,0,1,.36-1.78,5,5,0,0,1,1-1.47,4.58,4.58,0,0,1,1.43-1,4.24,4.24,0,0,1,1.74-.36,4.46,4.46,0,0,1,1.78.36,4.58,4.58,0,0,1,1.48,1,4.87,4.87,0,0,1,1,1.47A4.38,4.38,0,0,1,455,99.18Zm-1.37,11.45V147.1h-6.41V110.63Z" transform="translate(-72.14 -72.85)"/><path class="cls-1" d="M489.34,113.37a3.8,3.8,0,0,1-.23,1.33,3.74,3.74,0,0,1-.63,1.11L468.72,142.1h19.94v5H461.19v-2.66a3.29,3.29,0,0,1,.22-1.1,4.32,4.32,0,0,1,.65-1.21l19.87-26.46H462.31v-5h27Z" transform="translate(-72.14 -72.85)"/><path class="cls-1" d="M533.12,95.51a31.16,31.16,0,0,1,8.19.94A15.78,15.78,0,0,1,547,99.11a10.34,10.34,0,0,1,3.26,4.23,14.46,14.46,0,0,1,1,5.64,11,11,0,0,1-2.37,6.91,12.77,12.77,0,0,1-3,2.71,16.43,16.43,0,0,1-4.26,2q5.68,1.08,8.55,4.05a10.79,10.79,0,0,1,2.86,7.79,14.39,14.39,0,0,1-1.21,6,12.68,12.68,0,0,1-3.53,4.64,16.37,16.37,0,0,1-5.7,3,25.71,25.71,0,0,1-7.71,1.06H516.67V95.51Zm-9.5,5.51v17.6h9.21A18.15,18.15,0,0,0,538,118a10.65,10.65,0,0,0,3.6-1.8,7.09,7.09,0,0,0,2.11-2.79,9.37,9.37,0,0,0,.68-3.59c0-3-.91-5.27-2.73-6.67S537,101,533.12,101Zm11.16,40.53a17,17,0,0,0,5.14-.68,9.64,9.64,0,0,0,3.55-1.92,7.52,7.52,0,0,0,2-3,10.35,10.35,0,0,0,.65-3.76,7.75,7.75,0,0,0-2.84-6.32c-1.9-1.54-4.74-2.32-8.53-2.32H523.62v18Z" transform="translate(-72.14 -72.85)"/><path class="cls-1" d="M590.94,110.63V147.1h-3.82a1.63,1.63,0,0,1-1.73-1.33l-.5-3.93a19.82,19.82,0,0,1-5.33,4.23,14,14,0,0,1-6.77,1.61,13.32,13.32,0,0,1-5.27-1,10.32,10.32,0,0,1-3.84-2.8,11.86,11.86,0,0,1-2.32-4.35,19.3,19.3,0,0,1-.77-5.65V110.63H567v23.26a9.77,9.77,0,0,0,1.88,6.4c1.27,1.52,3.19,2.27,5.78,2.27a10.86,10.86,0,0,0,5.31-1.35,17,17,0,0,0,4.56-3.72V110.63Z" transform="translate(-72.14 -72.85)"/><path class="cls-1" d="M609.22,99.18a4,4,0,0,1-.38,1.75,5,5,0,0,1-1,1.44,4.69,4.69,0,0,1-1.48,1,4.49,4.49,0,0,1-1.78.36,4.25,4.25,0,0,1-1.75-.36,4.54,4.54,0,0,1-1.42-1,4.87,4.87,0,0,1-1-1.44,4.25,4.25,0,0,1-.36-1.75,4.53,4.53,0,0,1,.36-1.78,4.76,4.76,0,0,1,1-1.47,4.54,4.54,0,0,1,1.42-1,4.25,4.25,0,0,1,1.75-.36,4.49,4.49,0,0,1,1.78.36,4.69,4.69,0,0,1,1.48,1,4.85,4.85,0,0,1,1,1.47A4.22,4.22,0,0,1,609.22,99.18Zm-1.37,11.45V147.1h-6.4V110.63Z" transform="translate(-72.14 -72.85)"/><path class="cls-1" d="M625,94.07v53h-6.41v-53Z" transform="translate(-72.14 -72.85)"/><path class="cls-1" d="M665.53,94.07v53h-3.82a1.63,1.63,0,0,1-1.73-1.33l-.57-4.43a20.25,20.25,0,0,1-5.33,4.54,13.6,13.6,0,0,1-6.91,1.72,13.21,13.21,0,0,1-5.69-1.2,11.83,11.83,0,0,1-4.36-3.55,16.9,16.9,0,0,1-2.77-5.83,29.94,29.94,0,0,1-1-8,25.08,25.08,0,0,1,1.08-7.5,18.48,18.48,0,0,1,3.09-6,14.41,14.41,0,0,1,5-4,14.69,14.69,0,0,1,6.61-1.46,13.27,13.27,0,0,1,5.74,1.14,13.72,13.72,0,0,1,4.27,3.15V94.07Zm-6.41,25.24a10.41,10.41,0,0,0-3.89-3.37,11.21,11.21,0,0,0-4.68-1,9.19,9.19,0,0,0-7.81,3.63Q640,122.26,640,129a26.76,26.76,0,0,0,.61,6.1,11.75,11.75,0,0,0,1.8,4.18,7.12,7.12,0,0,0,2.92,2.39,9.59,9.59,0,0,0,3.92.76,10.38,10.38,0,0,0,5.53-1.44,15.9,15.9,0,0,0,4.34-4.07Z" transform="translate(-72.14 -72.85)"/><path class="cls-1" d="M705.27,142a12.23,12.23,0,0,1-2.84,2.5,18,18,0,0,1-3.55,1.75,23.15,23.15,0,0,1-3.91,1,23.54,23.54,0,0,1-4,.34,18.62,18.62,0,0,1-7-1.27,15.52,15.52,0,0,1-5.51-3.75,17.21,17.21,0,0,1-3.61-6.1,24.69,24.69,0,0,1-1.3-8.35,21.24,21.24,0,0,1,1.17-7.13,16.69,16.69,0,0,1,3.37-5.74,15.55,15.55,0,0,1,5.36-3.82,17.68,17.68,0,0,1,7.13-1.38,16.44,16.44,0,0,1,6.06,1.09,13.9,13.9,0,0,1,4.83,3.17,14.68,14.68,0,0,1,3.18,5.11,19.44,19.44,0,0,1,1.16,6.93,4.14,4.14,0,0,1-.33,2,1.32,1.32,0,0,1-1.22.5H679.93a21.33,21.33,0,0,0,1,6,12,12,0,0,0,2.36,4.27,9.63,9.63,0,0,0,3.6,2.56,12.43,12.43,0,0,0,4.68.84,13.51,13.51,0,0,0,4.16-.56,19.89,19.89,0,0,0,3-1.2,23.83,23.83,0,0,0,2.11-1.21,2.78,2.78,0,0,1,1.46-.55,1.41,1.41,0,0,1,1.22.61Zm-5.18-17.1a12.67,12.67,0,0,0-.63-4.09,9.28,9.28,0,0,0-1.84-3.2,8.14,8.14,0,0,0-2.93-2.09,11.1,11.1,0,0,0-11.22,1.94,12.56,12.56,0,0,0-3.33,7.44Z" transform="translate(-72.14 -72.85)"/><path class="cls-1" d="M719.78,117.94a16.23,16.23,0,0,1,4.25-5.85,9.29,9.29,0,0,1,6.15-2.11,9.5,9.5,0,0,1,2.22.26,5.91,5.91,0,0,1,1.89.79l-.47,4.78a1,1,0,0,1-1.08.91,7.84,7.84,0,0,1-1.48-.22,9.78,9.78,0,0,0-2.19-.22,8.65,8.65,0,0,0-3.08.51,7,7,0,0,0-2.41,1.49,10.46,10.46,0,0,0-1.91,2.45,19.82,19.82,0,0,0-1.53,3.33v23h-6.45V110.63h3.68a2,2,0,0,1,1.44.4,2.4,2.4,0,0,1,.53,1.37Z" transform="translate(-72.14 -72.85)"/></svg>